<svg width="32" height="32" viewBox="0 0 32 32" fill="none" xmlns="http://www.w3.org/2000/svg">
<path d="M31.8989 19.4211L18.0323 0.221063C17.9321 0.0821875 17.7712 -6.24644e-05 17.6 3.55937e-08H14.4C14.2287 -6.24644e-05 14.0679 0.0821875 13.9677 0.221063L0.101063 19.4211C0.0353751 19.5119 5.20855e-08 19.6213 5.20855e-08 19.7333V31.4666C-6.24479e-05 31.6081 0.0561251 31.7437 0.156188 31.8438C0.256188 31.9438 0.391875 32 0.533375 32H31.4667C31.6081 32.0001 31.7438 31.9439 31.8439 31.8438C31.9439 31.7438 32.0001 31.6081 32.0001 31.4666V19.7333C32 19.6213 31.9646 19.5119 31.8989 19.4211ZM1.06669 22.4H2.13337V28.8H1.06669V22.4ZM30.9333 30.9333H1.06669V29.8666H30.9334V30.9333H30.9333ZM13.9575 28.8H11.8226L3.2 23.1777V22.4H4.14594L13.9575 28.8ZM6.09762 22.4H14.4V27.8156L6.09762 22.4ZM9.86963 28.8H3.2V24.4511L9.86963 28.8ZM15.4667 28.8V22.4H16.5334V28.8H15.4667ZM20.1774 28.8H18.0425L27.8541 22.4H28.8V23.1777L20.1774 28.8ZM28.8 24.4511V28.8H22.1304L28.8 24.4511ZM17.6 27.8156V22.4H25.9024L17.6 27.8156ZM30.9333 28.8H29.8666V22.4H30.9333V28.8ZM30.9333 21.3333H1.06669V19.9057L14.6729 1.06662H17.3271L30.9334 19.9057V21.3333H30.9333Z" fill="#272727"/>
<path d="M15.2739 3.03287C15.2631 3.02362 15.2573 3.01074 15.2456 3.00224C15.2286 2.99331 15.2111 2.98537 15.1932 2.9785C15.1309 2.94118 15.0607 2.91856 14.9883 2.91237C14.9701 2.90762 14.9517 2.90387 14.9331 2.90125C14.9189 2.90125 14.9071 2.90818 14.8932 2.90931C14.7536 2.92324 14.6243 2.98924 14.5311 3.09418C14.522 3.105 14.5092 3.11062 14.5008 3.12237L2.73 19.421C2.61262 19.5833 2.59618 19.7977 2.68737 19.9761C2.77856 20.1544 2.962 20.2666 3.16231 20.2666H14.9331C15.0746 20.2666 15.2102 20.2104 15.3103 20.1104C15.4103 20.0104 15.4665 19.8747 15.4665 19.7332V3.43456C15.4665 3.42 15.4594 3.40781 15.4582 3.39356C15.444 3.25456 15.3782 3.12587 15.2739 3.03287ZM14.3998 19.1999H4.20556L14.3998 5.08393V19.1999Z" fill="#272727"/>
<path d="M17.0685 2.90125C17.0499 2.90393 17.0315 2.90762 17.0133 2.91237C16.941 2.91843 16.871 2.94099 16.8087 2.97831C16.7907 2.98524 16.773 2.99331 16.756 3.00231C16.7442 3.01081 16.7385 3.02362 16.7277 3.03293C16.6233 3.12593 16.5576 3.25462 16.5434 3.39368C16.5423 3.40793 16.5352 3.42012 16.5352 3.43462V19.7333C16.5351 19.8747 16.5913 20.0104 16.6913 20.1105C16.7914 20.2105 16.927 20.2667 17.0685 20.2667H28.8393C29.0396 20.2667 29.223 20.1546 29.3142 19.9762C29.4054 19.7978 29.3889 19.5834 29.2716 19.4211L17.5007 3.12231C17.4923 3.11068 17.4796 3.10506 17.4705 3.09437C17.3773 2.98937 17.248 2.92324 17.1083 2.90931C17.0944 2.90824 17.0826 2.90125 17.0685 2.90125ZM17.6018 5.08393L27.796 19.1999H17.6018V5.08393Z" fill="#272727"/>
</svg>
