<svg width="33" height="32" viewBox="0 0 33 32" fill="none" xmlns="http://www.w3.org/2000/svg">
<path d="M22.5211 16.403L21.7154 15.5972L30.3909 6.92162L25.0786 1.61151L16.4053 10.2847L15.5996 9.47898L25.0786 0L32.0028 6.9213L22.5211 16.403Z" fill="#272727"/>
<path d="M6.92418 32L0 25.0789L9.48426 15.5972L10.2901 16.403L1.61199 25.0789L6.92418 30.3886L15.5999 21.7129L16.4056 22.5188L6.92418 32Z" fill="#272727"/>
<path d="M5.11904 24.8454L3.08008 22.807L2.27425 23.6131L4.31321 25.6515L5.11904 24.8454Z" fill="#272727"/>
<path d="M6.98635 22.9792L4.94727 20.9407L4.14155 21.7466L6.18063 23.7851L6.98635 22.9792Z" fill="#272727"/>
<path d="M8.85313 21.1123L6.81445 19.0736L6.00874 19.8793L8.04741 21.918L8.85313 21.1123Z" fill="#272727"/>
<path d="M10.7199 19.2448L8.68164 17.2059L7.87581 18.0115L9.91409 20.0504L10.7199 19.2448Z" fill="#272727"/>
<path d="M20.0536 9.90951L18.0137 7.87073L17.2082 8.67667L19.2481 10.7155L20.0536 9.90951Z" fill="#272727"/>
<path d="M21.9201 8.04216L19.8809 6.00354L19.075 6.8096L21.1142 8.84821L21.9201 8.04216Z" fill="#272727"/>
<path d="M23.788 6.17498L21.748 4.13672L20.9427 4.94278L22.9827 6.98104L23.788 6.17498Z" fill="#272727"/>
<path d="M25.6553 4.30803L23.6152 2.26965L22.8099 3.07571L24.85 5.11409L25.6553 4.30803Z" fill="#272727"/>
<path d="M26.6934 29.751L29.7511 29.7506V26.6927L26.6934 29.751Z" fill="#272727"/>
<path d="M23.6377 30.3206C23.4917 30.3206 23.3461 30.2649 23.2346 30.1537L4.54385 11.4623C4.43696 11.3556 4.37695 11.2106 4.37695 11.0597C4.37695 10.9083 4.43696 10.7634 4.54385 10.6566L6.5826 8.61835C6.80518 8.39577 7.16586 8.39577 7.38844 8.61835L26.0793 27.3096C26.1862 27.4165 26.2464 27.5614 26.2464 27.7123C26.2464 27.8635 26.1862 28.0087 26.0793 28.1156L24.0407 30.154C23.929 30.2649 23.7834 30.3206 23.6377 30.3206ZM5.75228 11.0595L23.6375 28.9451L24.8704 27.712L6.98536 9.82679L5.75228 11.0595Z" fill="#272727"/>
<path d="M25.6748 28.2819C25.529 28.2819 25.3834 28.2265 25.2719 28.1153L6.581 9.42411C6.35842 9.20153 6.35842 8.84086 6.581 8.61828L8.61927 6.57952C8.83289 6.3659 9.21133 6.36558 9.42495 6.57952L28.1166 25.2707C28.2235 25.3775 28.2835 25.5224 28.2835 25.6737C28.2835 25.8249 28.2235 25.9697 28.1166 26.0766L26.0776 28.1153C25.9664 28.2265 25.8207 28.2819 25.6748 28.2819ZM7.78975 9.0212L25.6748 26.9064L26.9079 25.6737L9.02219 7.78844L7.78975 9.0212Z" fill="#272727"/>
<path d="M27.7145 26.2434C27.5635 26.2434 27.4185 26.1832 27.3116 26.0765L8.62006 7.38527C8.39748 7.16284 8.39748 6.80201 8.62006 6.57959L10.6591 4.54004C10.8728 4.32642 11.2512 4.32626 11.4648 4.54004L30.1552 23.2308C30.378 23.4532 30.378 23.8137 30.1555 24.0361L28.1177 26.0765C28.0109 26.1832 27.8657 26.2434 27.7145 26.2434ZM9.8285 6.98235L27.7142 24.8676L28.9468 23.6337L11.0619 5.74863L9.8285 6.98235Z" fill="#272727"/>
<path d="M23.6367 30.3206V29.1811L29.1824 29.1808V23.6335H30.322V30.3204L23.6367 30.3206Z" fill="#272727"/>
<path d="M4.94586 11.6295C4.80008 11.6295 4.65447 11.5738 4.54326 11.4628L3.11432 10.0359C3.00727 9.92921 2.94727 9.78423 2.94727 9.63286C2.94727 9.4818 3.00727 9.33651 3.11416 9.22978L9.23106 3.11304C9.45332 2.89062 9.814 2.89014 10.0367 3.11304L11.4647 4.5399C11.5714 4.64663 11.6316 4.7916 11.6316 4.94281C11.6316 5.09403 11.5716 5.239 11.4647 5.34589L5.34877 11.4623C5.2374 11.5735 5.09179 11.6295 4.94586 11.6295ZM4.32324 9.63222L4.9457 10.2539L10.256 4.94297L9.6343 4.32148L4.32324 9.63222Z" fill="#272727"/>
<path d="M3.5165 10.4384L3.11358 10.0354C2.18902 9.11135 1.67969 7.88195 1.67969 6.57415C1.67969 5.26634 2.18902 4.03711 3.11358 3.11286C4.03927 2.18845 5.26867 1.67944 6.57615 1.67944C7.88364 1.67944 9.11255 2.18861 10.0366 3.11286L10.4392 3.51594L3.5165 10.4384ZM6.57615 2.81907C5.57286 2.81907 4.62941 3.20967 3.9191 3.91902C3.20975 4.62788 2.81932 5.57085 2.81932 6.57415C2.81932 7.38494 3.07422 8.15622 3.54658 8.79676L8.79764 3.54586C8.15742 3.07414 7.38663 2.81907 6.57615 2.81907Z" fill="#272727"/>
</svg>
