<svg width="32" height="26" viewBox="0 0 32 26" fill="none" xmlns="http://www.w3.org/2000/svg">
<path d="M31.6017 0H2.39004C2.19087 0 1.9917 0.19917 1.9917 0.398341V3.05394C1.9917 3.25311 2.19087 3.45228 2.39004 3.45228H3.3195V7.03735C3.3195 7.23652 3.3195 7.43569 3.38589 7.63486L3.45228 7.90042H2.39004C2.19087 7.90042 1.9917 8.09959 1.9917 8.29876V12.2822C1.9917 12.4813 1.9917 12.6805 2.05809 12.8797L2.12448 13.2116H1.06224C0.863071 13.2116 0.6639 13.4108 0.6639 13.61V17.5934C0.6639 17.7925 0.663901 17.9917 0.730291 18.1909L0.796681 18.5228H0.398341C0.19917 18.5228 0 18.722 0 18.9212V22.9046C0 24.5643 1.39419 25.9585 3.05394 25.9585C4.04979 25.9585 4.91286 25.4938 5.51037 24.6971L5.70954 24.4315L5.90871 24.6971C6.90456 26.0249 8.82988 26.3568 10.1577 25.361C10.4232 25.1618 10.6224 24.9627 10.8216 24.6971L11.0207 24.4315L11.2199 24.6971C12.2158 26.0249 14.1411 26.3568 15.4689 25.361C15.7344 25.1618 15.9336 24.9627 16.1328 24.6971L16.332 24.4315L16.5311 24.6971C17.527 26.0249 19.4523 26.3568 20.7801 25.361C21.0456 25.1618 21.2448 24.9627 21.444 24.6971L21.6432 24.4315L21.8423 24.6971C22.8382 26.0249 24.7635 26.3568 26.0913 25.361C26.888 24.7635 27.3527 23.834 27.3527 22.9046V19.4523L27.4191 19.3859C27.8174 18.8548 28.0166 18.1909 28.0166 17.5934V14.805L28.1494 14.7386C28.9461 14.1411 29.3444 13.278 29.3444 12.2822V9.49378L29.4772 9.42739C30.2739 8.82988 30.6722 7.96681 30.6722 6.97096V3.38589H31.6017C31.8008 3.38589 32 3.18672 32 2.98755V0.33195C32 0.19917 31.8008 0 31.6017 0ZM2.78838 8.76349H3.85062L3.91701 8.89627C4.6473 9.82573 5.84232 10.2905 6.97095 10.0913L7.3029 10.0249V12.3486C7.3029 12.7469 7.17012 13.1452 6.97095 13.4772C6.77178 13.8091 6.50623 14.0747 6.17427 14.2739C5.84232 14.473 5.44398 14.5394 5.04564 14.5394C4.24896 14.5394 3.51867 14.1411 3.12033 13.4108C2.92116 13.0788 2.78838 12.6805 2.78838 12.2822V8.76349ZM22.9046 10.0249L23.2365 9.95851V12.3486C23.2365 12.7469 23.1037 13.1452 22.9046 13.4772C22.7054 13.8091 22.4398 14.0747 22.1079 14.2739C21.7759 14.473 21.3776 14.5394 20.9793 14.5394C20.1826 14.5394 19.4523 14.1411 19.0539 13.4108C18.8548 13.0788 18.722 12.6805 18.722 12.2822V9.49378L18.7884 9.42739C19.0539 9.22822 19.2531 9.02905 19.3859 8.82988L19.5851 8.56432L19.7842 8.82988C20.5809 9.82573 21.7759 10.2905 22.9046 10.0249ZM20.0498 7.03735V3.45228H24.5643V7.03735C24.5643 8.29876 23.5685 9.29461 22.3071 9.29461C21.0456 9.29461 20.0498 8.29876 20.0498 7.03735ZM19.2531 7.03735C19.2531 8.29876 18.2573 9.29461 16.9959 9.29461C15.7344 9.29461 14.7386 8.29876 14.7386 7.03735V3.45228H19.2531V7.03735ZM17.5934 10.0249L17.9253 9.95851V12.3486C17.9253 12.7469 17.7925 13.1452 17.5934 13.4772C17.3942 13.8091 17.1286 14.0747 16.7967 14.2739C16.4647 14.473 16.0664 14.5394 15.6681 14.5394C14.8714 14.5394 14.1411 14.1411 13.7427 13.4108C13.5436 13.0788 13.4108 12.6805 13.4108 12.2822V9.49378L13.4772 9.42739C13.7427 9.22822 13.9419 9.02905 14.0747 8.82988L14.2739 8.56432L14.473 8.82988C15.2697 9.82573 16.4647 10.2905 17.5934 10.0249ZM13.9419 7.03735C13.9419 8.29876 12.9461 9.29461 11.6846 9.29461C10.4232 9.29461 9.42739 8.29876 9.42739 7.03735V3.45228H13.9419V7.03735ZM12.2822 10.0249L12.6141 9.95851V12.3486C12.6141 12.7469 12.4813 13.1452 12.2822 13.4772C12.083 13.8091 11.8174 14.0747 11.4855 14.2739C11.1535 14.473 10.7552 14.5394 10.3568 14.5394C9.56017 14.5394 8.82988 14.1411 8.43154 13.4108C8.23237 13.0788 8.09959 12.6805 8.09959 12.2822V9.49378L8.16598 9.42739C8.43154 9.22822 8.63071 9.02905 8.76349 8.82988L8.96266 8.56432L9.16183 8.82988C9.95851 9.82573 11.1535 10.2905 12.2822 10.0249ZM8.63071 7.03735C8.63071 8.29876 7.63486 9.29461 6.37344 9.29461C5.11203 9.29461 4.11618 8.29876 4.11618 7.03735V3.45228H8.63071V7.03735ZM5.3112 22.971C5.3112 24.2324 4.31535 25.2282 3.05394 25.2282C1.79253 25.2282 0.796681 24.2324 0.796681 22.971V19.3859H1.19502L1.26141 19.5187C2.12448 20.6473 3.65145 21.0456 4.91286 20.5145L5.24481 20.3817V22.971H5.3112ZM5.9751 17.6598C5.9751 18.0581 5.84232 18.4564 5.64315 18.7884C5.57676 18.9212 5.51037 19.0539 5.37759 19.1203C4.91286 19.6515 4.31535 19.8506 3.71784 19.8506C3.18672 19.8506 2.6556 19.6515 2.25726 19.3195C1.72614 18.9212 1.46058 18.3237 1.46058 17.6598V14.0747H2.52282L2.58921 14.1411C3.18672 14.9378 4.04979 15.3361 5.04564 15.4025C5.24481 15.4025 5.44398 15.4025 5.64315 15.3361L5.9751 15.2697V17.6598ZM10.6224 22.971C10.6224 24.2324 9.62656 25.2282 8.36515 25.2282C7.10373 25.2282 6.10788 24.2324 6.10788 22.971V18.9212L6.57261 19.5187C7.43568 20.6473 8.96266 21.0456 10.2241 20.5145L10.556 20.3817V22.971H10.6224ZM11.2863 17.6598C11.2863 18.0581 11.1535 18.4564 10.9544 18.7884C10.888 18.9212 10.8216 19.0539 10.6888 19.1203C10.2241 19.6515 9.62656 19.8506 9.02905 19.8506C8.49793 19.8506 7.9668 19.6515 7.56846 19.3195C7.03734 18.9212 6.77178 18.3237 6.77178 17.6598V14.8714L6.83818 14.805C7.10374 14.6058 7.30291 14.4066 7.43569 14.2075L7.63485 13.9419L7.83403 14.2075C8.43154 15.0042 9.361 15.4689 10.2905 15.4689C10.4896 15.4689 10.6888 15.4689 10.888 15.4025L11.2199 15.3361V17.6598H11.2863ZM15.9336 22.971C15.9336 24.2324 14.9378 25.2282 13.6763 25.2282C12.4149 25.2282 11.4191 24.2324 11.4191 22.971V18.9212L11.8838 19.5187C12.7469 20.6473 14.2739 21.0456 15.5353 20.5145L15.8672 20.3817V22.971H15.9336ZM16.5975 17.6598C16.5975 18.0581 16.4647 18.4564 16.2656 18.7884C16.1992 18.9212 16.1328 19.0539 16 19.1203C15.5353 19.6515 14.9378 19.8506 14.3403 19.8506C13.8091 19.8506 13.278 19.6515 12.8797 19.3195C12.3485 18.9212 12.083 18.3237 12.083 17.6598V14.8714L12.1494 14.805C12.4149 14.6058 12.6141 14.4066 12.7469 14.2075L12.9461 13.9419L13.1452 14.2075C13.7427 15.0042 14.6722 15.4689 15.6017 15.4689C15.8008 15.4689 16 15.4689 16.1992 15.4025L16.5311 15.3361V17.6598H16.5975ZM21.2448 22.971C21.2448 24.2324 20.249 25.2282 18.9876 25.2282C17.7261 25.2282 16.7303 24.2324 16.7303 22.971V18.9212L17.195 19.5187C18.0581 20.6473 19.5851 21.0456 20.8465 20.5145L21.1784 20.3817V22.971H21.2448ZM21.9087 17.6598C21.9087 18.0581 21.7759 18.4564 21.5768 18.7884C21.5104 18.9212 21.444 19.0539 21.3112 19.1203C20.9129 19.5851 20.3817 19.8506 19.7842 19.8506C19.7178 19.8506 19.7178 19.8506 19.6515 19.8506C19.1203 19.8506 18.5892 19.6515 18.1909 19.3195C17.6598 18.9212 17.3942 18.3237 17.3942 17.6598V14.8714L17.4606 14.805C17.7261 14.6058 17.9253 14.4066 18.0581 14.2075L18.2573 13.9419L18.4564 14.2075C19.0539 15.0042 19.9834 15.4689 20.9129 15.4689C21.112 15.4689 21.3112 15.4689 21.5104 15.4025L21.8423 15.3361V17.6598H21.9087ZM26.556 22.971C26.556 24.2324 25.5602 25.2282 24.2988 25.2282C23.0373 25.2282 22.0415 24.2324 22.0415 22.971V18.9212L22.5062 19.5187C23.3693 20.6473 24.8963 21.0456 26.1577 20.5145L26.4896 20.3817V22.971H26.556ZM27.2199 17.6598C27.2199 18.1909 27.0207 18.722 26.6888 19.1203C26.2241 19.6515 25.6266 19.8506 25.029 19.8506C24.4979 19.8506 23.9668 19.6515 23.5685 19.3195C22.971 18.9212 22.7054 18.3237 22.7054 17.6598V14.8714L22.7718 14.805C23.0373 14.6058 23.2365 14.4066 23.3693 14.2075L23.5685 13.9419L23.7676 14.2075C24.3651 15.0042 25.2946 15.4689 26.2241 15.4689C26.4232 15.4689 26.6224 15.4689 26.8216 15.4025L27.1535 15.3361V17.6598H27.2199ZM28.5477 12.3486C28.5477 13.1452 28.1494 13.8755 27.4191 14.2739C27.0871 14.473 26.6888 14.5394 26.2905 14.5394C25.4938 14.5394 24.7635 14.1411 24.3651 13.4108C24.166 13.0788 24.0332 12.6805 24.0332 12.2822V9.49378L24.0996 9.42739C24.3651 9.22822 24.5643 9.02905 24.6971 8.82988L24.8963 8.56432L25.0954 8.82988C25.8257 9.75934 27.0207 10.2241 28.1494 10.0249L28.4813 9.95851V12.3486H28.5477ZM29.8755 7.03735C29.8755 8.29876 28.8797 9.29461 27.6183 9.29461C26.3568 9.29461 25.361 8.29876 25.361 7.03735V3.45228H29.8755V7.03735ZM31.2033 2.6556H2.78838V0.796681H31.2033V2.6556Z" fill="#272727"/>
</svg>
