<svg width="33" height="32" viewBox="0 0 33 32" fill="none" xmlns="http://www.w3.org/2000/svg">
<path d="M15.4738 25.7085C15.38 25.6146 15.2566 25.5561 15.1245 25.543C14.9924 25.5299 14.8599 25.563 14.7495 25.6366C14.6391 25.7103 14.5576 25.8199 14.519 25.9469C14.4803 26.0739 14.4869 26.2104 14.5376 26.333C14.5883 26.4557 14.68 26.557 14.797 26.6196C14.914 26.6823 15.0491 26.7025 15.1793 26.6767C15.3095 26.6509 15.4267 26.5808 15.511 26.4782C15.5953 26.3757 15.6415 26.2471 15.6416 26.1144C15.6412 25.9623 15.581 25.8164 15.4738 25.7085Z" fill="#272727"/>
<path d="M10.3959 20.925C10.3957 20.7729 10.3352 20.6271 10.2277 20.5195C10.1201 20.412 9.97428 20.3515 9.82218 20.3513H5.22216C5.07005 20.3515 4.92422 20.412 4.81667 20.5195C4.70911 20.6271 4.64861 20.7729 4.64844 20.925V27.4716C4.64861 27.6237 4.70911 27.7695 4.81667 27.8771C4.92422 27.9847 5.07005 28.0452 5.22216 28.0453H9.82218C9.97428 28.0452 10.1201 27.9847 10.2277 27.8771C10.3352 27.7695 10.3957 27.6237 10.3959 27.4716V20.925ZM9.24845 26.8979H5.79588V24.772H9.24845V26.8979ZM9.24845 23.6246H5.79588V21.4988H9.24845V23.6246Z" fill="#272727"/>
<path d="M28.0854 20.925C28.0852 20.7729 28.0246 20.6271 27.9171 20.5196C27.8095 20.412 27.6637 20.3515 27.5116 20.3513H22.9116C22.7595 20.3515 22.6137 20.412 22.5061 20.5196C22.3986 20.6271 22.3381 20.7729 22.3379 20.925V27.4716C22.3381 27.6237 22.3986 27.7695 22.5061 27.8771C22.6137 27.9847 22.7595 28.0452 22.9116 28.0453H27.5116C27.6637 28.0452 27.8096 27.9847 27.9171 27.8771C28.0247 27.7695 28.0852 27.6237 28.0854 27.4716V20.925ZM26.9379 26.8979H23.4853V24.772H26.9379V26.8979ZM26.9379 23.6246H23.4853V21.4988H26.9379V23.6246Z" fill="#272727"/>
<path d="M10.3959 11.0831C10.3957 10.931 10.3352 10.7852 10.2277 10.6776C10.1201 10.5701 9.97428 10.5096 9.82218 10.5094H5.22216C5.07005 10.5096 4.92422 10.5701 4.81667 10.6776C4.70911 10.7852 4.64861 10.931 4.64844 11.0831V17.6297C4.64861 17.7818 4.70911 17.9276 4.81667 18.0352C4.92422 18.1427 5.07005 18.2032 5.22216 18.2034H9.82218C9.97428 18.2032 10.1201 18.1427 10.2277 18.0352C10.3352 17.9276 10.3957 17.7818 10.3959 17.6297V11.0831ZM9.24845 17.0561H5.79588V14.9302H9.24845V17.0561ZM9.24845 13.7827H5.79588V11.6568H9.24845V13.7827Z" fill="#272727"/>
<path d="M20.1613 11.0831C20.1611 10.931 20.1006 10.7852 19.9931 10.6776C19.8855 10.5701 19.7397 10.5096 19.5876 10.5094H13.0854C12.9333 10.5096 12.7875 10.5701 12.6799 10.6776C12.5724 10.7852 12.5119 10.931 12.5117 11.0831V17.6297C12.5119 17.7818 12.5724 17.9276 12.6799 18.0352C12.7875 18.1427 12.9333 18.2032 13.0854 18.2034H19.5876C19.7397 18.2032 19.8855 18.1427 19.9931 18.0352C20.1006 17.9276 20.1611 17.7818 20.1613 17.6297V11.0831ZM19.0139 17.0561H13.6592V14.9302H19.0139V17.0561ZM19.0139 13.7827H13.6592V11.6568H19.0139V13.7827Z" fill="#272727"/>
<path d="M28.0854 11.0831C28.0852 10.931 28.0247 10.7852 27.9171 10.6776C27.8096 10.5701 27.6637 10.5096 27.5116 10.5094H22.9116C22.7595 10.5096 22.6137 10.5701 22.5061 10.6776C22.3986 10.7852 22.3381 10.931 22.3379 11.0831V17.6297C22.3381 17.7818 22.3986 17.9276 22.5061 18.0352C22.6137 18.1427 22.7595 18.2032 22.9116 18.2034H27.5116C27.6637 18.2032 27.8096 18.1427 27.9171 18.0352C28.0247 17.9276 28.0852 17.7818 28.0854 17.6297V11.0831ZM26.9379 17.0561H23.4853V14.9302H26.9379V17.0561ZM26.9379 13.7827H23.4853V11.6568H26.9379V13.7827Z" fill="#272727"/>
<path d="M32.1011 30.8526H31.3362V11.3548L31.817 11.5955C31.9047 11.6384 32.0018 11.6587 32.0994 11.6544C32.1969 11.6501 32.2918 11.6214 32.3754 11.5709C32.4589 11.5197 32.5277 11.4479 32.5754 11.3624C32.623 11.277 32.6479 11.1806 32.6475 11.0828V8.44873C32.6479 8.34215 32.6184 8.2376 32.5624 8.14692C32.5064 8.05624 32.4261 7.98306 32.3306 7.93566L29.3418 6.43989V1.22255C29.3416 1.07044 29.2811 0.924611 29.1735 0.817055C29.066 0.709499 28.9201 0.648998 28.768 0.648824H24.226C24.0739 0.648998 23.9281 0.709499 23.8206 0.817055C23.713 0.924611 23.6525 1.07044 23.6523 1.22255V3.59275L16.5942 0.0602679C16.5144 0.0206279 16.4265 0 16.3374 0C16.2483 0 16.1604 0.0206279 16.0806 0.0602679L0.344233 7.9355C0.248747 7.98288 0.168439 8.05605 0.112409 8.14673C0.056378 8.23741 0.0268641 8.34197 0.0272108 8.44857V11.0824C0.0268539 11.1802 0.0516999 11.2766 0.0993571 11.3621C0.147014 11.4476 0.215878 11.5193 0.299319 11.5705C0.382692 11.6215 0.477652 11.6506 0.575302 11.6549C0.672953 11.6592 0.770096 11.6386 0.857632 11.5951L1.33857 11.3544V30.8526H0.573722C0.421561 30.8526 0.275633 30.913 0.168039 31.0206C0.0604455 31.1282 0 31.2741 0 31.4263C0 31.5784 0.0604455 31.7244 0.168039 31.832C0.275633 31.9396 0.421561 32 0.573722 32H32.1011C32.2533 32 32.3992 31.9396 32.5068 31.832C32.6144 31.7244 32.6748 31.5784 32.6748 31.4263C32.6748 31.2741 32.6144 31.1282 32.5068 31.0206C32.3992 30.913 32.2533 30.8526 32.1011 30.8526ZM24.7998 1.79627H28.1943V5.86576L24.7998 4.16697V1.79627ZM1.17474 10.1535V8.80305L16.3374 1.21517L16.374 1.23353L31.5 8.80305V10.1535L16.5942 2.69431C16.5142 2.65514 16.4264 2.63477 16.3374 2.63477C16.2484 2.63477 16.1606 2.65514 16.0807 2.69431L1.17474 10.1535ZM19.0148 30.8526H13.6601V21.4988H19.0148V30.8526ZM30.1887 30.8526H20.1622V20.9251C20.162 20.773 20.1015 20.6272 19.994 20.5197C19.8864 20.4121 19.7406 20.3516 19.5885 20.3514H13.0863C12.9342 20.3516 12.7884 20.4121 12.6809 20.5196C12.5733 20.6272 12.5128 20.773 12.5126 20.9251V30.8526H2.4861V10.7805L16.3374 3.84888L16.374 3.86724L30.1887 10.7805V30.8526Z" fill="#272727"/>
</svg>
