<svg width="500" height="337" viewBox="0 0 500 337" fill="none" xmlns="http://www.w3.org/2000/svg">
<path d="M159.6 162.074C151.95 162.074 146.432 159.682 143.047 154.896C139.694 150.111 138.018 143.145 138.018 133.998V107.631C138.018 102.976 138.376 98.972 139.092 95.6191C139.84 92.2337 141.077 89.2715 142.803 86.7324C144.528 84.1934 146.904 82.2891 149.932 81.0195C152.959 79.75 156.67 79.1152 161.064 79.1152C169.072 79.1152 174.818 81.0846 178.301 85.0234C181.784 88.9297 183.525 94.8704 183.525 102.846V106.801H169.414V102.602C169.414 100.811 169.365 99.3464 169.268 98.207C169.202 97.0677 169.007 95.9284 168.682 94.7891C168.389 93.6172 167.949 92.722 167.363 92.1035C166.777 91.485 165.98 90.9805 164.971 90.5898C163.962 90.1992 162.725 90.0039 161.26 90.0039C160.153 90.0039 159.16 90.1504 158.281 90.4434C157.435 90.7038 156.719 91.0456 156.133 91.4688C155.547 91.8594 155.042 92.429 154.619 93.1777C154.229 93.9264 153.919 94.6589 153.691 95.375C153.496 96.0586 153.333 96.9538 153.203 98.0605C153.105 99.1673 153.04 100.144 153.008 100.99C152.975 101.837 152.959 102.927 152.959 104.262V136.928C152.959 141.811 153.561 145.391 154.766 147.67C155.97 149.916 158.265 151.039 161.65 151.039C163.408 151.039 164.873 150.714 166.045 150.062C167.249 149.379 168.177 148.37 168.828 147.035C169.512 145.668 169.984 144.122 170.244 142.396C170.537 140.639 170.684 138.523 170.684 136.049V129.408H161.943V119.887H183.965V161H174.395L173.32 152.797C170.879 158.982 166.305 162.074 159.6 162.074ZM227.119 161.977C218.786 161.977 212.812 159.714 209.199 155.189C205.586 150.665 203.779 144.04 203.779 135.316V105.434C203.779 101.137 204.186 97.4095 205 94.252C205.814 91.0944 207.116 88.36 208.906 86.0488C210.729 83.7376 213.154 82.0124 216.182 80.873C219.209 79.7012 222.855 79.1152 227.119 79.1152C235.42 79.1152 241.377 81.3451 244.99 85.8047C248.636 90.2643 250.459 96.8073 250.459 105.434V135.316C250.459 139.548 250.036 143.275 249.189 146.498C248.376 149.688 247.057 152.471 245.234 154.848C243.444 157.191 241.035 158.965 238.008 160.17C234.98 161.374 231.351 161.977 227.119 161.977ZM223.408 150.404C224.45 150.827 225.687 151.039 227.119 151.039C228.551 151.039 229.772 150.827 230.781 150.404C231.79 149.981 232.588 149.428 233.174 148.744C233.792 148.061 234.264 147.165 234.59 146.059C234.948 144.952 235.176 143.845 235.273 142.738C235.404 141.632 235.469 140.313 235.469 138.783V102.016C235.469 100.062 235.371 98.4349 235.176 97.1328C234.98 95.8307 234.59 94.61 234.004 93.4707C233.451 92.2988 232.604 91.4362 231.465 90.8828C230.326 90.2969 228.877 90.0039 227.119 90.0039C225.361 90.0039 223.896 90.2969 222.725 90.8828C221.585 91.4362 220.739 92.2988 220.186 93.4707C219.632 94.61 219.258 95.8307 219.062 97.1328C218.867 98.4349 218.77 100.062 218.77 102.016V138.783C218.77 140.313 218.818 141.632 218.916 142.738C219.046 143.845 219.274 144.952 219.6 146.059C219.958 147.165 220.43 148.061 221.016 148.744C221.602 149.428 222.399 149.981 223.408 150.404ZM293.271 161.977C284.938 161.977 278.965 159.714 275.352 155.189C271.738 150.665 269.932 144.04 269.932 135.316V105.434C269.932 101.137 270.339 97.4095 271.152 94.252C271.966 91.0944 273.268 88.36 275.059 86.0488C276.882 83.7376 279.307 82.0124 282.334 80.873C285.361 79.7012 289.007 79.1152 293.271 79.1152C301.572 79.1152 307.529 81.3451 311.143 85.8047C314.788 90.2643 316.611 96.8073 316.611 105.434V135.316C316.611 139.548 316.188 143.275 315.342 146.498C314.528 149.688 313.21 152.471 311.387 154.848C309.596 157.191 307.188 158.965 304.16 160.17C301.133 161.374 297.503 161.977 293.271 161.977ZM289.561 150.404C290.602 150.827 291.839 151.039 293.271 151.039C294.704 151.039 295.924 150.827 296.934 150.404C297.943 149.981 298.74 149.428 299.326 148.744C299.945 148.061 300.417 147.165 300.742 146.059C301.1 144.952 301.328 143.845 301.426 142.738C301.556 141.632 301.621 140.313 301.621 138.783V102.016C301.621 100.062 301.523 98.4349 301.328 97.1328C301.133 95.8307 300.742 94.61 300.156 93.4707C299.603 92.2988 298.757 91.4362 297.617 90.8828C296.478 90.2969 295.029 90.0039 293.271 90.0039C291.514 90.0039 290.049 90.2969 288.877 90.8828C287.738 91.4362 286.891 92.2988 286.338 93.4707C285.785 94.61 285.41 95.8307 285.215 97.1328C285.02 98.4349 284.922 100.062 284.922 102.016V138.783C284.922 140.313 284.971 141.632 285.068 142.738C285.199 143.845 285.426 144.952 285.752 146.059C286.11 147.165 286.582 148.061 287.168 148.744C287.754 149.428 288.551 149.981 289.561 150.404ZM337.402 161V80.043H356.25C361.133 80.043 365.218 80.5312 368.506 81.5078C371.794 82.4844 374.43 84.0306 376.416 86.1465C378.402 88.2624 379.801 90.8665 380.615 93.959C381.462 97.0189 381.885 100.795 381.885 105.287V134.486C381.885 139.109 381.462 143.031 380.615 146.254C379.769 149.477 378.369 152.211 376.416 154.457C374.495 156.703 371.924 158.363 368.701 159.438C365.479 160.479 361.523 161 356.836 161H337.402ZM352.148 150.648H356.348C357.812 150.648 359.098 150.518 360.205 150.258C361.312 149.997 362.24 149.688 362.988 149.33C363.737 148.972 364.355 148.386 364.844 147.572C365.365 146.758 365.755 146.01 366.016 145.326C366.276 144.643 366.471 143.617 366.602 142.25C366.732 140.85 366.813 139.662 366.846 138.686C366.878 137.709 366.895 136.26 366.895 134.34V104.75C366.895 102.829 366.862 101.283 366.797 100.111C366.732 98.9395 366.569 97.7676 366.309 96.5957C366.081 95.3913 365.723 94.4635 365.234 93.8125C364.779 93.1615 364.16 92.5755 363.379 92.0547C362.598 91.5013 361.621 91.127 360.449 90.9316C359.277 90.7038 357.861 90.5898 356.201 90.5898H352.148V150.648ZM141.973 261L130.4 180.043H142.803L149.443 232.24L158.086 180.043H167.998L176.836 232.289L183.477 180.043H195.635L184.062 261H172.295L163.164 206.947L154.082 261H141.973ZM236.299 261.977C227.965 261.977 221.992 259.714 218.379 255.189C214.766 250.665 212.959 244.04 212.959 235.316V205.434C212.959 201.137 213.366 197.41 214.18 194.252C214.993 191.094 216.296 188.36 218.086 186.049C219.909 183.738 222.334 182.012 225.361 180.873C228.389 179.701 232.035 179.115 236.299 179.115C244.6 179.115 250.557 181.345 254.17 185.805C257.816 190.264 259.639 196.807 259.639 205.434V235.316C259.639 239.548 259.215 243.275 258.369 246.498C257.555 249.688 256.237 252.471 254.414 254.848C252.624 257.191 250.215 258.965 247.188 260.17C244.16 261.374 240.531 261.977 236.299 261.977ZM232.588 250.404C233.63 250.827 234.867 251.039 236.299 251.039C237.731 251.039 238.952 250.827 239.961 250.404C240.97 249.981 241.768 249.428 242.354 248.744C242.972 248.061 243.444 247.165 243.77 246.059C244.128 244.952 244.355 243.845 244.453 242.738C244.583 241.632 244.648 240.313 244.648 238.783V202.016C244.648 200.062 244.551 198.435 244.355 197.133C244.16 195.831 243.77 194.61 243.184 193.471C242.63 192.299 241.784 191.436 240.645 190.883C239.505 190.297 238.057 190.004 236.299 190.004C234.541 190.004 233.076 190.297 231.904 190.883C230.765 191.436 229.919 192.299 229.365 193.471C228.812 194.61 228.438 195.831 228.242 197.133C228.047 198.435 227.949 200.062 227.949 202.016V238.783C227.949 240.313 227.998 241.632 228.096 242.738C228.226 243.845 228.454 244.952 228.779 246.059C229.137 247.165 229.609 248.061 230.195 248.744C230.781 249.428 231.579 249.981 232.588 250.404ZM295.176 214.613H298.74C303.102 214.613 306.195 213.686 308.018 211.83C309.873 209.975 310.801 206.801 310.801 202.309C310.801 197.979 310.003 194.887 308.408 193.031C306.813 191.143 303.883 190.199 299.619 190.199H295.176V214.613ZM280.43 261V180.043H298.984C303.249 180.043 306.911 180.401 309.971 181.117C313.031 181.801 315.684 182.973 317.93 184.633C320.208 186.26 321.901 188.49 323.008 191.322C324.147 194.122 324.717 197.556 324.717 201.625C324.717 206.703 323.952 210.854 322.422 214.076C320.924 217.299 318.434 219.643 314.951 221.107L326.182 261H311.387L301.719 224.037H295.176V261H280.43ZM345.898 261V180.043H360.645V215.199L376.562 180.043H390.625L375.146 216.273L392.236 261H377.539L363.574 222.914L360.645 228.188V261H345.898Z" fill="black"/>
<rect x="37.5" y="7.5" width="455" height="322" stroke="black" stroke-width="15"/>
<line y1="170.5" x2="74" y2="170.5" stroke="black" stroke-width="15"/>
</svg>
