<svg width="169" height="99" viewBox="0 0 169 99" fill="none" xmlns="http://www.w3.org/2000/svg">
<g clip-path="url(#clip0)">
<path d="M0.802514 69.9067C0.799716 68.6935 1.04125 67.4922 1.51265 66.3749C1.98405 65.2576 2.6756 64.2471 3.54586 63.4042C4.41611 62.5612 5.44716 61.9031 6.57721 61.4693C7.70726 61.0354 8.91305 60.8348 10.1223 60.8794C12.7007 60.7924 15.2145 61.6977 17.1482 63.4098L14.3288 66.8064C13.1926 65.749 11.6979 65.1642 10.1477 65.1704C8.91646 65.264 7.7684 65.8292 6.94163 66.7487C6.11487 67.6682 5.67285 68.8715 5.70726 70.1089C5.74166 71.3464 6.24985 72.5231 7.12642 73.395C8.00299 74.2669 9.18068 74.7671 10.4152 74.7918C11.3893 74.8339 12.3538 74.5836 13.1852 74.073V71.9637H9.77588V68.4424H17.7408V76.2548C15.6251 78.0043 12.9638 78.9535 10.2213 78.9367C4.82976 78.9326 0.802514 75.2128 0.802514 69.9067Z" fill="#EF9300"/>
<path d="M19.8259 69.9067C19.8341 68.6942 20.0841 67.4955 20.5611 66.3813C21.0382 65.2671 21.7327 64.2598 22.6039 63.4186C23.475 62.5775 24.5051 61.9195 25.6336 61.4834C26.7622 61.0474 27.9663 60.842 29.1751 60.8794C30.3852 60.8385 31.5911 61.0425 32.7208 61.4794C33.8505 61.9162 34.8807 62.5768 35.75 63.4218C36.6193 64.2668 37.3098 65.2787 37.7803 66.3972C38.2508 67.5158 38.4915 68.7179 38.4882 69.9318C38.4849 71.1457 38.2375 72.3464 37.7609 73.4623C37.2844 74.5782 36.5883 75.5864 35.7144 76.4265C34.8405 77.2667 33.8066 77.9217 32.6746 78.3522C31.5425 78.7828 30.3355 78.9802 29.1257 78.9327C27.9185 78.9734 26.7154 78.7699 25.5883 78.3345C24.4612 77.8991 23.4331 77.2406 22.5653 76.3983C21.6974 75.556 21.0076 74.5471 20.537 73.4319C20.0664 72.3166 19.8245 71.1177 19.8259 69.9067ZM33.5782 69.9067C33.6026 69.3031 33.5058 68.7007 33.2936 68.1353C33.0814 67.5699 32.758 67.053 32.3427 66.6152C31.9274 66.1775 31.4287 65.8278 30.8761 65.587C30.3234 65.3462 29.7282 65.2192 29.1257 65.2134C28.5264 65.2191 27.9346 65.3467 27.386 65.5885C26.8375 65.8303 26.3436 66.1813 25.9342 66.6201C25.5249 67.0589 25.2088 67.5765 25.0049 68.1414C24.8009 68.7063 24.7136 69.3069 24.748 69.9067C24.7231 70.5083 24.8187 71.1089 25.0291 71.6729C25.2396 72.2368 25.5607 72.7528 25.9734 73.1903C26.3861 73.6278 26.882 73.978 27.4319 74.2201C27.9818 74.4622 28.5746 74.5914 29.1751 74.6C29.7764 74.5974 30.3708 74.472 30.9222 74.2316C31.4736 73.9912 31.9704 73.6408 32.3823 73.2017C32.7943 72.7626 33.1127 72.244 33.3183 71.6775C33.5239 71.111 33.6124 70.5085 33.5782 69.9067Z" fill="#EF9300"/>
<path d="M40.3929 69.9067C40.4011 68.6945 40.6509 67.4962 41.1277 66.3823C41.6046 65.2683 42.2987 64.2612 43.1694 63.4201C44.0401 62.579 45.0698 61.921 46.1978 61.4846C47.3259 61.0483 48.5296 60.8425 49.7381 60.8794C50.9482 60.8385 52.1541 61.0425 53.2838 61.4794C54.4134 61.9162 55.4437 62.5768 56.313 63.4218C57.1823 64.2668 57.8728 65.2787 58.3432 66.3972C58.8137 67.5158 59.0545 68.7179 59.0511 69.9318C59.0478 71.1457 58.8005 72.3464 58.3239 73.4623C57.8473 74.5782 57.1513 75.5864 56.2773 76.4265C55.4034 77.2667 54.3695 77.9217 53.2375 78.3522C52.1055 78.7828 50.8985 78.9802 49.6886 78.9327C48.4817 78.9728 47.2791 78.769 46.1525 78.3333C45.0259 77.8976 43.9982 77.2391 43.1308 76.3968C42.2634 75.5546 41.574 74.5459 41.1036 73.4309C40.6332 72.3159 40.3915 71.1173 40.3929 69.9067ZM54.1465 69.9067C54.1707 69.3031 54.0738 68.7008 53.8615 68.1355C53.6492 67.5702 53.3258 67.0533 52.9106 66.6156C52.4954 66.1779 51.9967 65.8283 51.4441 65.5874C50.8916 65.3465 50.2964 65.2193 49.6939 65.2134C49.0947 65.2189 48.5027 65.3464 47.9541 65.5881C47.4054 65.8299 46.9114 66.1808 46.5021 66.6197C46.0928 67.0585 45.7766 67.5762 45.5727 68.1412C45.3689 68.7062 45.2817 69.3069 45.3163 69.9067C45.2912 70.5084 45.3867 71.109 45.5971 71.6731C45.8075 72.2371 46.1285 72.7532 46.5412 73.1907C46.954 73.6283 47.45 73.9784 48 74.2205C48.55 74.4625 49.1428 74.5916 49.7434 74.6C50.3442 74.5965 50.9379 74.4704 51.4886 74.2296C52.0393 73.9889 52.5353 73.6383 52.9467 73.1993C53.358 72.7603 53.676 72.2421 53.8814 71.6761C54.0867 71.11 54.1751 70.508 54.1412 69.9067H54.1465Z" fill="#EF9300"/>
<path d="M61.543 61.2266H68.2225C74.4072 61.2266 77.993 64.7975 77.993 69.8569C77.993 74.8654 74.3563 78.5852 68.1235 78.5852H61.543V61.2266ZM68.2961 74.3196C71.1664 74.3196 73.071 72.7333 73.071 69.8811C73.071 67.104 71.1664 65.4425 68.2961 65.4425H66.3406V74.3196H68.2961Z" fill="#EF9300"/>
<path d="M86.1652 61.2266H91.2357L94.2518 71.2704L97.5956 61.177H101.725L105.068 71.2704L108.084 61.2266H113.057L107.268 78.714H103.083L99.5965 68.7199L96.1337 78.714H91.9526L86.1652 61.2266Z" fill="#003575"/>
<path d="M113.382 69.9066C113.317 68.0422 113.809 66.2007 114.795 64.6186C115.781 63.0366 117.216 61.7862 118.916 61.0281C120.617 60.2701 122.504 60.039 124.336 60.3644C126.169 60.6899 127.862 61.5572 129.199 62.8548C130.536 64.1524 131.455 65.8211 131.839 67.6465C132.223 69.472 132.054 71.3708 131.354 73.0991C130.653 74.8274 129.453 76.3063 127.908 77.3458C126.363 78.3853 124.543 78.9379 122.682 78.9326C121.477 78.9633 120.279 78.753 119.156 78.3139C118.033 77.8749 117.009 77.216 116.143 76.3757C115.278 75.5354 114.587 74.5305 114.113 73.4198C113.639 72.3091 113.391 71.1148 113.382 69.9066ZM127.135 69.9066C127.159 69.303 127.062 68.7006 126.85 68.1352C126.638 67.5698 126.314 67.0529 125.899 66.6152C125.484 66.1774 124.985 65.8278 124.432 65.587C123.88 65.3462 123.285 65.2191 122.682 65.2133C122.083 65.219 121.491 65.3466 120.942 65.5884C120.394 65.8302 119.9 66.1812 119.491 66.62C119.081 67.0588 118.765 67.5764 118.561 68.1413C118.357 68.7063 118.27 69.3068 118.304 69.9066C118.28 70.5082 118.375 71.1087 118.586 71.6726C118.796 72.2365 119.117 72.7524 119.53 73.1899C119.943 73.6273 120.439 73.9775 120.988 74.2197C121.538 74.4619 122.131 74.5912 122.731 74.6C123.333 74.5973 123.927 74.472 124.479 74.2315C125.03 73.9911 125.527 73.6407 125.939 73.2016C126.351 72.7625 126.669 72.2439 126.875 71.6775C127.08 71.111 127.169 70.5085 127.135 69.9066Z" fill="#003575"/>
<path d="M134.539 61.2267H142.726C143.742 61.1455 144.764 61.2681 145.733 61.5875C146.701 61.9068 147.596 62.4165 148.366 63.0866C148.998 63.7869 149.454 64.6278 149.698 65.5399C149.941 66.452 149.965 67.4091 149.767 68.3322C149.569 69.2552 149.154 70.1177 148.558 70.8485C147.962 71.5793 147.2 72.1574 146.337 72.535L150.47 78.58H144.929L141.441 73.3235H139.339V78.58H134.54L134.539 61.2267ZM142.504 69.5581C144.136 69.5581 145.076 68.7656 145.076 67.4514C145.076 66.0877 144.086 65.3931 142.478 65.3931H139.338V69.5581H142.504Z" fill="#003575"/>
<path d="M152.328 61.2266H157.127V68.2693L163.088 61.2266H168.778L162.224 68.6903L169.001 78.5852H163.239L158.884 72.1433L157.127 74.1024V78.5799H152.328V61.2266Z" fill="#003575"/>
<path d="M13.4433 92.5662H14.5615V94.9316L16.7015 92.5662H18.0257L16.1144 94.642L18.1902 97.5036H16.8527L15.3613 95.4653L14.5588 96.3155V97.5036H13.4407L13.4433 92.5662Z" fill="#003575"/>
<path d="M23.1644 92.5661H24.2932V93.3881C24.4703 93.1046 24.7164 92.8709 25.0084 92.709C25.3005 92.5471 25.6288 92.4624 25.9624 92.4629C26.5942 92.5324 27.1782 92.8332 27.6024 93.3077C28.0266 93.7822 28.2612 94.397 28.2612 95.0342C28.2612 95.6714 28.0266 96.2862 27.6024 96.7607C27.1782 97.2352 26.5942 97.536 25.9624 97.6055C25.6346 97.6084 25.311 97.5307 25.02 97.3792C24.729 97.2277 24.4795 97.0071 24.2932 96.7365V99H23.1644V92.5661ZM27.1087 95.0255C27.1249 94.8279 27.1009 94.6292 27.0382 94.4412C26.9754 94.2533 26.8751 94.0801 26.7435 93.9323C26.6119 93.7844 26.4517 93.6649 26.2726 93.581C26.0935 93.4972 25.8992 93.4507 25.7016 93.4445C25.3084 93.4842 24.944 93.6689 24.6789 93.9627C24.4138 94.2566 24.2671 94.6386 24.2671 95.0348C24.2671 95.431 24.4138 95.8131 24.6789 96.107C24.944 96.4008 25.3084 96.5855 25.7016 96.6252C25.9014 96.6205 26.098 96.5744 26.2791 96.4899C26.4603 96.4053 26.622 96.2841 26.7541 96.1339C26.8863 95.9836 26.986 95.8076 27.047 95.6168C27.108 95.4261 27.129 95.2247 27.1087 95.0255Z" fill="#003575"/>
<path d="M33.3335 95.0442C33.3226 94.5207 33.4676 94.0059 33.75 93.5655C34.0325 93.1252 34.4395 92.7792 34.9191 92.572C35.3986 92.3647 35.9289 92.3055 36.4422 92.402C36.9555 92.4985 37.4284 92.7462 37.8005 93.1136C38.1726 93.4809 38.427 93.9511 38.5312 94.4642C38.6354 94.9772 38.5846 95.5098 38.3853 95.9937C38.186 96.4777 37.8473 96.891 37.4125 97.181C36.9777 97.471 36.4665 97.6243 35.9443 97.6215C35.6035 97.6263 35.2651 97.5632 34.9488 97.4359C34.6325 97.3085 34.3446 97.1195 34.1017 96.8798C33.8589 96.64 33.6659 96.3543 33.534 96.0392C33.4021 95.7241 33.334 95.3859 33.3335 95.0442ZM37.4557 95.0442C37.4643 94.8393 37.4317 94.6348 37.3597 94.4429C37.2878 94.251 37.178 94.0756 37.0369 93.9271C36.8958 93.7787 36.7264 93.6603 36.5387 93.5789C36.3509 93.4976 36.1488 93.4551 35.9443 93.4538C35.7406 93.4535 35.539 93.4952 35.352 93.5764C35.1651 93.6576 34.9969 93.7765 34.8577 93.9256C34.7186 94.0748 34.6116 94.2511 34.5433 94.4435C34.4751 94.636 34.447 94.8404 34.461 95.0442C34.4531 95.248 34.486 95.4513 34.5576 95.6422C34.6293 95.8332 34.7383 96.0078 34.8782 96.1558C35.0182 96.3039 35.1862 96.4224 35.3725 96.5044C35.5588 96.5863 35.7596 96.6302 35.963 96.6332C36.1666 96.6331 36.3681 96.5911 36.5549 96.5099C36.7418 96.4288 36.9101 96.3101 37.0494 96.1612C37.1888 96.0123 37.2962 95.8364 37.3652 95.6443C37.4341 95.4522 37.4631 95.2479 37.4503 95.0442H37.4557Z" fill="#003575"/>
<path d="M43.9225 92.5662H46.4491C47.4295 92.5662 48.0728 93.0435 48.0728 93.8012C48.0766 94.0494 48.0019 94.2925 47.8594 94.4955C47.7169 94.6986 47.514 94.8512 47.2797 94.9316C47.5695 94.9792 47.8323 95.1306 48.0193 95.3577C48.2062 95.5849 48.3046 95.8723 48.2962 96.1666C48.2962 96.998 47.5967 97.5076 46.4772 97.5076H43.9225V92.5662ZM46.1883 94.6044C46.6631 94.6044 46.9253 94.3523 46.9253 93.997C46.9253 93.6792 46.7113 93.4364 46.207 93.4364H45.0327V94.6044H46.1883ZM46.31 96.6051C46.8597 96.6051 47.15 96.353 47.15 95.9695C47.15 95.6141 46.8597 95.3714 46.2538 95.3714H45.0327V96.6051H46.31Z" fill="#003575"/>
<path d="M52.916 97.4942L53.0003 96.5689C53.1079 96.5896 53.2171 96.6017 53.3266 96.6051C53.8964 96.6051 54.2883 96.3248 54.2883 92.5662H58.0093V97.5035H56.8804V93.5383H55.3409C55.3409 97.12 54.6722 97.5612 53.5781 97.5612C53.3562 97.5533 53.135 97.5309 52.916 97.4942Z" fill="#003575"/>
<path d="M64.531 95.6516C64.2005 95.5739 63.9065 95.3852 63.6978 95.1169C63.489 94.8486 63.3781 94.5168 63.3834 94.1765C63.3834 93.2231 64.0829 92.5674 65.3241 92.5674H67.7945V97.5048H66.6656V95.8393H65.6598L64.4935 97.5034H63.1694L64.531 95.6516ZM66.671 94.9811V93.4819H65.4779C64.8814 93.4819 64.5176 93.7622 64.5176 94.2302C64.5176 94.6982 64.9095 94.9878 65.4886 94.9878L66.671 94.9811Z" fill="#003575"/>
<path d="M80.3938 92.5662H81.4946V95.8783C82.2704 94.7761 83.0434 93.6724 83.8272 92.5688H84.8892V97.5062H83.7991V94.2115L81.4545 97.5036H80.3845L80.3938 92.5662Z" fill="#003575"/>
<path d="M100.362 97.1482C100.054 97.4313 99.65 97.5849 99.2327 97.5773C98.0677 97.5773 97.2371 96.6521 97.2371 95.0295C97.2371 93.4391 98.0677 92.4817 99.2434 92.4817C99.4537 92.4843 99.6614 92.5296 99.8538 92.6148C100.046 92.7001 100.219 92.8236 100.363 92.9778V90.957H101.492V92.9872C101.635 92.833 101.808 92.7095 102.001 92.6242C102.193 92.539 102.401 92.4937 102.611 92.4911C103.786 92.4911 104.618 93.4445 104.618 95.0389C104.618 96.6333 103.787 97.572 102.621 97.572C102.203 97.5827 101.798 97.4286 101.493 97.1429V98.9947H100.364L100.362 97.1482ZM100.362 96.3061V93.8012C100.259 93.6929 100.136 93.6063 100 93.5466C99.864 93.487 99.7171 93.4554 99.5684 93.4539C98.7846 93.4539 98.3754 94.0895 98.3754 95.0536C98.3754 96.0178 98.7659 96.6333 99.5684 96.6333C99.8655 96.6334 100.151 96.5158 100.362 96.3061ZM103.477 95.0443C103.477 94.0895 103.075 93.4539 102.292 93.4539C101.991 93.4673 101.705 93.5909 101.489 93.8012V96.3061C101.704 96.5162 101.992 96.6337 102.292 96.6333C103.094 96.6333 103.477 96.0352 103.477 95.0443Z" fill="#003575"/>
<path d="M112.982 97.5036V96.8961C112.788 97.1279 112.543 97.3122 112.267 97.4351C111.991 97.558 111.69 97.6163 111.388 97.6055C111.17 97.63 110.949 97.6085 110.739 97.5426C110.53 97.4767 110.336 97.3677 110.171 97.2226C110.006 97.0775 109.873 96.8994 109.78 96.6998C109.688 96.5003 109.638 96.2835 109.633 96.0634C109.633 94.9692 110.482 94.4462 111.63 94.4462C112.092 94.4385 112.552 94.5078 112.992 94.6514V94.5575C112.992 93.875 112.564 93.5008 111.78 93.5008C111.294 93.5027 110.813 93.6078 110.37 93.8092L110.064 92.9028C110.648 92.6235 111.289 92.4827 111.936 92.4911C112.223 92.4492 112.515 92.4736 112.791 92.5623C113.067 92.651 113.319 92.8017 113.527 93.0028C113.736 93.204 113.896 93.4503 113.996 93.723C114.095 93.9957 114.131 94.2876 114.1 94.5763V97.5036H112.982ZM113.01 95.4372C112.649 95.3041 112.267 95.2373 111.882 95.2401C111.174 95.2401 110.753 95.531 110.753 96.0258C110.753 96.4938 111.174 96.7553 111.705 96.7553C112.451 96.7553 113.01 96.3343 113.01 95.7174V95.4372Z" fill="#003575"/>
<path d="M119.365 95.0629V95.0441C119.36 94.7055 119.423 94.3693 119.55 94.0554C119.677 93.7414 119.864 93.4559 120.102 93.2156C120.34 92.9752 120.624 92.7848 120.936 92.6556C121.248 92.5263 121.583 92.4608 121.921 92.4628C122.292 92.4466 122.662 92.5148 123.003 92.6623C123.344 92.8097 123.647 93.0326 123.89 93.3143L123.189 94.0719C123.035 93.8805 122.84 93.7258 122.619 93.6189C122.399 93.512 122.157 93.4556 121.912 93.4537C121.715 93.4616 121.522 93.5087 121.343 93.5923C121.165 93.676 121.005 93.7945 120.873 93.9408C120.741 94.0872 120.64 94.2585 120.574 94.4447C120.509 94.631 120.482 94.8284 120.494 95.0253V95.0441C120.482 95.2463 120.512 95.4487 120.58 95.6392C120.648 95.8297 120.754 96.0044 120.892 96.1528C121.029 96.3012 121.195 96.4203 121.38 96.5028C121.564 96.5854 121.763 96.6297 121.965 96.6332C122.209 96.6267 122.45 96.5684 122.67 96.4621C122.89 96.3558 123.085 96.2038 123.242 96.0163L123.923 96.6868C123.682 96.9866 123.374 97.2261 123.024 97.3867C122.675 97.5472 122.293 97.6243 121.909 97.612C121.574 97.6162 121.241 97.5531 120.931 97.4264C120.62 97.2998 120.338 97.1122 120.101 96.8747C119.864 96.6372 119.677 96.3545 119.551 96.0434C119.424 95.7322 119.361 95.3989 119.365 95.0629Z" fill="#003575"/>
<path d="M132.118 97.5036V96.8962C131.923 97.1279 131.679 97.3122 131.403 97.4351C131.126 97.558 130.826 97.6163 130.524 97.6055C130.306 97.63 130.085 97.6086 129.875 97.5426C129.666 97.4767 129.473 97.3677 129.308 97.2225C129.143 97.0774 129.01 96.8994 128.917 96.6998C128.825 96.5002 128.775 96.2835 128.77 96.0634C128.77 94.9692 129.62 94.4462 130.766 94.4462C131.228 94.4384 131.689 94.5078 132.129 94.6514V94.5575C132.129 93.875 131.699 93.5009 130.916 93.5009C130.43 93.5027 129.95 93.6078 129.507 93.8093L129.198 92.9028C129.783 92.6241 130.424 92.4833 131.071 92.4911C131.357 92.4492 131.65 92.4736 131.925 92.5623C132.201 92.6509 132.453 92.8017 132.661 93.0029C132.87 93.2041 133.03 93.4504 133.129 93.7231C133.228 93.9958 133.264 94.2877 133.234 94.5763V97.5036H132.118ZM132.148 95.4372C131.786 95.3044 131.404 95.2377 131.019 95.2401C130.31 95.2401 129.89 95.5311 129.89 96.0259C129.89 96.4939 130.31 96.7554 130.841 96.7554C131.587 96.7554 132.148 96.3343 132.148 95.7175V95.4372Z" fill="#003575"/>
<path d="M138.202 96.5314H138.737C139.166 95.4685 139.354 94.3236 139.289 93.179V92.5662H143.103V96.5314H143.803L143.649 98.6943H142.713V97.5062H139.262L139.151 98.6943H138.214L138.202 96.5314ZM141.97 96.5314V93.5384H140.348V94.1927C140.364 94.996 140.208 95.7934 139.892 96.5314H141.97Z" fill="#003575"/>
<path d="M148.931 92.5662H150.06V94.296H151.096C152.206 94.296 153.054 94.7828 153.054 95.8582C153.054 96.8773 152.336 97.5036 151.182 97.5036H148.933L148.931 92.5662ZM151.031 96.589C151.599 96.589 151.927 96.3369 151.927 95.8609C151.927 95.4211 151.591 95.177 151.012 95.177H150.06V96.589H151.031ZM153.801 92.5662H154.929V97.5036H153.801V92.5662Z" fill="#003575"/>
<path d="M166.162 44.8952L159.462 37.5816V26.2049H151.364V28.742L139.48 15.7696L125.592 19.5994L107.742 0.113981L107.73 0L107.67 0.0321829L107.638 0V0.0455925C105.94 0.905144 75.8958 12.7713 75.8958 12.7713C75.8958 12.7713 80.1825 13.9888 84.0345 15.4116L36.5622 7.67026L2.46102 44.8952L0 47.5422H6.82934V47.5194L6.86812 47.5422L36.5408 14.5829L60.9732 47.5422H122.139C125.041 42.2253 139.48 23.3044 139.48 23.3044L161.753 47.5422H168.708L166.162 44.8952ZM116.318 22.1566L86.5183 30.374L95.4984 26.3417C95.4489 26.2867 95.4984 23.3044 95.4984 23.3044L108.313 5.48987L121.981 20.593L119.734 21.2139" fill="#003575"/>
<path d="M160.501 22.8755H150.326V25.5239H160.501V22.8755Z" fill="#003575"/>
<path d="M138.031 29.6779C141.556 33.6163 147.6 40.3519 151.125 44.2943V47.5474C151.125 47.5474 158.493 47.5354 158.514 47.5474L139.904 27.0872L138.031 29.6779Z" fill="#EF9300"/>
<path d="M118.878 21.4473L107.811 9.19897L105.939 11.8004C109.465 15.7375 111.934 18.4556 115.458 22.394" fill="#EF9300"/>
<path d="M10.3229 47.5423C10.343 47.5302 17.71 47.5423 17.71 47.5423V44.2891C21.2344 40.3521 35.0629 24.9311 38.5872 20.994L36.8097 18.5803L10.3229 47.5423Z" fill="#EF9300"/>
<path d="M36.8899 39.0217H43.0679V37.5869H43.0585C42.9317 36.0339 42.2274 34.5853 41.0854 33.5285C39.9433 32.4716 38.4468 31.8836 36.8926 31.8811L36.8899 39.0217Z" fill="#EF9300"/>
<path d="M36.1329 39.0217V31.8784C34.5888 31.8938 33.1062 32.4873 31.9762 33.5425C30.8462 34.5978 30.1506 36.0384 30.0258 37.5815H30.0165V39.0217H36.1329Z" fill="#EF9300"/>
<path d="M43.0652 39.7769H36.8899V45.7522H43.0652V39.7769Z" fill="#EF9300"/>
<path d="M36.1329 39.7769H30.0165V45.7522H36.1329V39.7769Z" fill="#EF9300"/>
<path d="M139.801 42.122H144.184V41.2048H144.17C144.081 40.0994 143.583 39.0672 142.775 38.3097C141.967 37.5522 140.907 37.1238 139.801 37.1082V42.122Z" fill="#EF9300"/>
<path d="M139.042 42.122V37.1189C137.957 37.1591 136.925 37.5975 136.141 38.3507C135.356 39.1039 134.876 40.1195 134.789 41.2048H134.776V42.122H139.042Z" fill="#EF9300"/>
<path d="M144.185 42.8811H139.801V47.0944H144.185V42.8811Z" fill="#EF9300"/>
<path d="M139.042 42.8811H134.776V47.0944H139.042V42.8811Z" fill="#EF9300"/>
</g>
<defs>
<clipPath id="clip0">
<rect width="169" height="99" fill="white"/>
</clipPath>
</defs>
</svg>
