<svg width="37" height="37" viewBox="0 0 37 37" fill="none" xmlns="http://www.w3.org/2000/svg">
<g clip-path="url(#clip0)">
<path d="M17.9738 0.00929507C10.6228 0.267228 4.51583 6.00243 3.8103 13.3232C3.66617 14.7873 3.74961 16.2059 4.00755 17.5639C4.00755 17.5639 4.03031 17.7232 4.10617 18.0266C4.33376 19.0432 4.67514 20.0294 5.09997 20.9549C6.57929 24.4598 10.0007 30.324 17.678 36.704C18.1483 37.0985 18.8387 37.0985 19.3166 36.704C26.9939 30.3315 30.4153 24.4674 31.9022 20.9473C32.3346 20.0218 32.6684 19.0432 32.896 18.0191C32.9643 17.7232 32.9946 17.5563 32.9946 17.5563C33.1691 16.6459 33.2602 15.7128 33.2602 14.757C33.2602 6.42726 26.3643 -0.286569 17.9738 0.00929507ZM18.4973 22.1005C14.5373 22.1005 11.3283 18.8915 11.3283 14.9315C11.3283 10.9714 14.5373 7.76244 18.4973 7.76244C22.4573 7.76244 25.6663 10.9714 25.6663 14.9315C25.6663 18.8915 22.4573 22.1005 18.4973 22.1005Z" fill="#EF9300"/>
</g>
<defs>
<clipPath id="clip0">
<rect width="37" height="37" fill="white"/>
</clipPath>
</defs>
</svg>
